<!DOCTYPE svg PUBLIC "-//W3C//DTD SVG 1.1//EN" "http://www.w3.org/Graphics/SVG/1.1/DTD/svg11.dtd">
<!-- Uploaded to: SVG Repo, www.svgrepo.com, Transformed by: SVG Repo Mixer Tools -->
<svg fill="#000000" width="100px" height="100px" viewBox="-20.8 -20.8 73.60 73.60" version="1.1" xmlns="http://www.w3.org/2000/svg" stroke="#000000" stroke-width="0.00032">
<g id="SVGRepo_bgCarrier" stroke-width="0">
<path transform="translate(-20.8, -20.8), scale(4.6)" fill="#ffae00" d="M9.166.33a2.25 2.25 0 00-2.332 0l-5.25 3.182A2.25 2.25 0 00.5 5.436v5.128a2.25 2.25 0 001.084 1.924l5.25 3.182a2.25 2.25 0 002.332 0l5.25-3.182a2.25 2.25 0 001.084-1.924V5.436a2.25 2.25 0 00-1.084-1.924L9.166.33z" strokewidth="0"/>
</g>
<g id="SVGRepo_tracerCarrier" stroke-linecap="round" stroke-linejoin="round"/>
<g id="SVGRepo_iconCarrier"> <title>contract</title> <path d="M0 26.016v-20q0-2.496 1.76-4.256t4.256-1.76h20q2.464 0 4.224 1.76t1.76 4.256v20q0 2.496-1.76 4.224t-4.224 1.76h-20q-2.496 0-4.256-1.76t-1.76-4.224zM4 26.016q0 0.832 0.576 1.408t1.44 0.576h19.232l-3.84-3.84-1.536 1.504q-0.48 0.448-1.152 0.544t-1.28-0.128-1.024-0.736-0.416-1.088v-5.664q0-0.8 0.896-1.696t1.696-0.896h5.664q0.608 0 1.12 0.48t0.704 1.056 0.128 1.312-0.544 1.152l-1.408 1.376 3.744 3.744v-19.104q0-0.832-0.576-1.408t-1.408-0.608h-12v4q0 2.496-1.76 4.256t-4.256 1.76h-4v12zM4 8q0 0.832 0.576 1.44t1.44 0.576h1.984q0.832 0 1.408-0.576t0.608-1.44v-1.984q0-0.832-0.608-1.408t-1.408-0.608h-1.984q-0.832 0-1.44 0.608t-0.576 1.408v1.984z"/> </g>
</svg>